<svg xmlns="http://www.w3.org/2000/svg" version="1.1" xmlns:xlink="http://www.w3.org/1999/xlink" xmlns:svgjs="http://svgjs.dev/svgjs" width="2000" height="1126" viewBox="0 0 2000 1126"><g transform="matrix(1,0,0,1,-1.2121212121212466,-0.1708136144384298)"><svg viewBox="0 0 396 223" data-background-color="#c8c8c8" preserveAspectRatio="xMidYMid meet" height="1126" width="2000" xmlns="http://www.w3.org/2000/svg" xmlns:xlink="http://www.w3.org/1999/xlink"><g id="tight-bounds" transform="matrix(1,0,0,1,0.2400000000000091,0.03382898403177137)"><svg viewBox="0 0 395.52 222.93234203193646" height="222.93234203193646" width="395.52"><g><svg viewBox="0 0 395.52 222.93234203193646" height="222.93234203193646" width="395.52"><g transform="matrix(1,0,0,1,0,165.87265410420582)"><svg viewBox="0 0 395.52 57.05968792773063" height="57.05968792773063" width="395.52"><g id="textblocktransform"><svg viewBox="0 0 395.52 57.05968792773063" height="57.05968792773063" width="395.52" id="textblock"><g><svg viewBox="0 0 395.52 57.05968792773063" height="57.05968792773063" width="395.52"><g transform="matrix(1,0,0,1,0,0)"><svg width="395.52" viewBox="1.81 -38.09 267.53 38.6" height="57.05968792773063" data-palette-color="#d48e2e"><path d="M10.6-19.56L10.6-19.56 10.6-3.76 14.58-3.08 14.58 0 1.81 0 1.81-3.08 5.79-3.76 5.79-22.63 1.81-23.32 1.81-26.42 10.11-26.42 10.42-22.97Q11.69-24.85 13.7-25.88 15.7-26.9 18.33-26.9L18.33-26.9Q20.97-26.9 22.86-25.68 24.76-24.46 25.71-22.02L25.71-22.02Q26.95-24.27 29-25.59 31.05-26.9 33.79-26.9L33.79-26.9Q37.84-26.9 40.19-24.13 42.53-21.36 42.53-15.8L42.53-15.8 42.53-3.76 46.51-3.08 46.51 0 33.72 0 33.72-3.08 37.7-3.76 37.7-15.84Q37.7-19.75 36.35-21.37 35.01-23 32.37-23L32.37-23Q29.86-23 28.33-21.23 26.81-19.46 26.56-16.77L26.56-16.77 26.56-3.76 30.54-3.08 30.54 0 17.77 0 17.77-3.08 21.75-3.76 21.75-15.84Q21.75-19.56 20.37-21.28 18.99-23 16.38-23L16.38-23Q14.18-23 12.77-22.09 11.35-21.19 10.6-19.56ZM62.01 0.51L62.01 0.51Q58.37 0.51 55.71-1.22L55.71-1.22Q53.05-2.95 51.61-5.98 50.17-9.01 50.17-12.92L50.17-12.92 50.17-13.45Q50.17-17.33 51.61-20.41L51.61-20.41Q53.05-23.46 55.7-25.18 58.35-26.9 61.96-26.9L61.96-26.9Q65.6-26.9 68.28-25.17L68.28-25.17Q70.92-23.44 72.36-20.41 73.8-17.38 73.8-13.45L73.8-13.45 73.8-12.92Q73.8-9.03 72.36-5.96L72.36-5.96Q70.92-2.93 68.28-1.21 65.65 0.51 62.01 0.51ZM62.01-3.25L62.01-3.25Q64.3-3.25 65.87-4.52L65.87-4.52Q67.4-5.76 68.2-7.95 68.99-10.13 68.99-12.92L68.99-12.92 68.99-13.45Q68.99-16.21 68.21-18.43L68.21-18.43Q67.4-20.61 65.84-21.86 64.28-23.12 61.96-23.12L61.96-23.12Q59.69-23.12 58.1-21.88L58.1-21.88Q56.54-20.61 55.76-18.42 54.98-16.24 54.98-13.45L54.98-13.45 54.98-12.92Q54.98-10.16 55.76-7.96L55.76-7.96Q56.54-5.76 58.12-4.5 59.69-3.25 62.01-3.25ZM90.67-5.66L91.45-7.79 96.89-22.83 93.35-23.32 93.35-26.42 104.41-26.42 104.41-23.32 101.63-22.95 92.7 0 88.47 0 79.07-22.95 76.34-23.32 76.34-26.42 87.42-26.42 87.42-23.32 83.98-22.83 89.84-7.79 90.52-5.66 90.67-5.66ZM115.57-32.93L110.51-32.93 110.51-38.09 115.57-38.09 115.57-32.93ZM106.78-3.08L110.76-3.76 110.76-22.63 106.78-23.32 106.78-26.42 115.57-26.42 115.57-3.76 119.55-3.08 119.55 0 106.78 0 106.78-3.08ZM134.9 0.51L134.9 0.51Q131.24 0.51 128.53-1.17L128.53-1.17Q125.82-2.83 124.34-5.81 122.87-8.79 122.87-12.7L122.87-12.7 122.87-13.77Q122.87-17.55 124.43-20.51L124.43-20.51Q125.97-23.49 128.54-25.2 131.12-26.9 134.17-26.9L134.17-26.9Q137.73-26.9 140.15-25.44L140.15-25.44Q142.54-23.97 143.76-21.33 144.99-18.68 144.99-15.09L144.99-15.09 144.99-12.08 127.85-12.08 127.77-11.96Q127.8-9.47 128.68-7.47L128.68-7.47Q129.53-5.49 131.11-4.37 132.68-3.25 134.9-3.25L134.9-3.25Q137.34-3.25 139.19-3.94 141.03-4.64 142.37-5.86L142.37-5.86 144.25-2.73Q142.84-1.37 140.51-0.43 138.17 0.51 134.9 0.51ZM127.94-15.97L127.94-15.97 127.99-15.84 140.18-15.84 140.18-16.48Q140.18-18.41 139.52-19.9L139.52-19.9Q138.83-21.41 137.5-22.27 136.17-23.12 134.17-23.12L134.17-23.12Q132.58-23.12 131.24-22.19L131.24-22.19Q128.51-20.21 127.94-15.97ZM149.26-35.55L178.8-35.55 178.8-26.98 175.23-26.98 174.5-31.91 166.44-31.91 166.44-3.76 170.42-3.08 170.42 0 157.65 0 157.65-3.08 161.63-3.76 161.63-31.91 153.58-31.91 152.87-26.98 149.26-26.98 149.26-35.55ZM191.66-32.93L186.61-32.93 186.61-38.09 191.66-38.09 191.66-32.93ZM182.87-3.08L186.85-3.76 186.85-22.63 182.87-23.32 182.87-26.42 191.66-26.42 191.66-3.76 195.64-3.08 195.64 0 182.87 0 182.87-3.08ZM207.75-19.56L207.75-19.56 207.75-3.76 211.73-3.08 211.73 0 198.96 0 198.96-3.08 202.94-3.76 202.94-22.63 198.96-23.32 198.96-26.42 207.26-26.42 207.58-22.97Q208.84-24.85 210.85-25.88 212.85-26.9 215.49-26.9L215.49-26.9Q218.12-26.9 220.01-25.68 221.91-24.46 222.86-22.02L222.86-22.02Q224.1-24.27 226.15-25.59 228.21-26.9 230.94-26.9L230.94-26.9Q234.99-26.9 237.34-24.13 239.68-21.36 239.68-15.8L239.68-15.8 239.68-3.76 243.66-3.08 243.66 0 230.87 0 230.87-3.08 234.85-3.76 234.85-15.84Q234.85-19.75 233.5-21.37 232.16-23 229.52-23L229.52-23Q227.01-23 225.48-21.23 223.96-19.46 223.71-16.77L223.71-16.77 223.71-3.76 227.69-3.08 227.69 0 214.92 0 214.92-3.08 218.9-3.76 218.9-15.84Q218.9-19.56 217.52-21.28 216.14-23 213.53-23L213.53-23Q211.34-23 209.92-22.09 208.5-21.19 207.75-19.56ZM259.26 0.51L259.26 0.51Q255.6 0.51 252.89-1.17L252.89-1.17Q250.18-2.83 248.7-5.81 247.22-8.79 247.22-12.7L247.22-12.7 247.22-13.77Q247.22-17.55 248.78-20.51L248.78-20.51Q250.32-23.49 252.9-25.2 255.47-26.9 258.52-26.9L258.52-26.9Q262.09-26.9 264.51-25.44L264.51-25.44Q266.9-23.97 268.12-21.33 269.34-18.68 269.34-15.09L269.34-15.09 269.34-12.08 252.2-12.08 252.13-11.96Q252.15-9.47 253.03-7.47L253.03-7.47Q253.89-5.49 255.46-4.37 257.04-3.25 259.26-3.25L259.26-3.25Q261.7-3.25 263.54-3.94 265.39-4.64 266.73-5.86L266.73-5.86 268.61-2.73Q267.19-1.37 264.86-0.43 262.53 0.51 259.26 0.51ZM252.3-15.97L252.3-15.97 252.35-15.84 264.53-15.84 264.53-16.48Q264.53-18.41 263.87-19.9L263.87-19.9Q263.19-21.41 261.86-22.27 260.53-23.12 258.52-23.12L258.52-23.12Q256.94-23.12 255.6-22.19L255.6-22.19Q252.86-20.21 252.3-15.97Z" opacity="1" transform="matrix(1,0,0,1,0,0)" fill="#ffffff" class="wordmark-text-0" data-fill-palette-color="primary" id="text-0"></path></svg></g></svg></g></svg></g></svg></g><g transform="matrix(1,0,0,1,128.294095835124,0)"><svg viewBox="0 0 138.93180832975196 138.93180832975196" height="138.93180832975196" width="138.93180832975196"><g><svg></svg></g><g id="icon-0"><svg viewBox="0 0 138.93180832975196 138.93180832975196" height="138.93180832975196" width="138.93180832975196"><g><path d="M0 69.466c0-38.365 31.101-69.466 69.466-69.466 38.365 0 69.466 31.101 69.466 69.466 0 38.365-31.101 69.466-69.466 69.466-38.365 0-69.466-31.101-69.466-69.466zM69.466 133.786c35.523 0 64.32-28.797 64.32-64.32 0-35.523-28.797-64.32-64.32-64.32-35.523 0-64.32 28.797-64.32 64.32 0 35.523 28.797 64.32 64.32 64.32z" data-fill-palette-color="accent" fill="#ffffff" stroke="transparent"></path><ellipse rx="68.77124512322722" ry="68.77124512322722" cx="69.46590416487598" cy="69.46590416487598" fill="#ffffff" stroke="transparent" stroke-width="0" fill-opacity="1" data-fill-palette-color="accent"></ellipse></g><g transform="matrix(1,0,0,1,29.266113281229366,36.06037874043082)"><svg viewBox="0 0 80.39958176729323 66.81105084889032" height="66.81105084889032" width="80.39958176729323"><g><svg xmlns="http://www.w3.org/2000/svg" xmlns:xlink="http://www.w3.org/1999/xlink" version="1.1" x="0" y="0" viewBox="2.742 9.033228763833671 95.02762342805964 78.96677123616632" enable-background="new 0 0 100 100" xml:space="preserve" id="dxe-0" width="80.39958176729323" height="66.81105084889032" class="icon-dxe-0" data-fill-palette-color="quaternary"><path d="M97.666 63.241L97.562 61.033C97.3 55.061 97.031 48.898 94.333 44.36A29 29 0 0 0 95.537 39.808C96.404 35.073 96.515 28.102 92.127 21.782 87.776 15.517 79.973 11.344 68.929 9.38A23 23 0 0 0 66.581 9.099 28 28 0 0 0 65.77 9.043C65.401 9.029 65.033 9.033 64.665 9.037 58.634 9.017 52.668 11.147 47.813 15.214A27.6 27.6 0 0 0 44.472 18.577C40.896 17.067 34.228 14.941 27.535 14.941 20.525 14.941 15.132 17.366 11.849 21.92 11.828 21.945 11.798 21.957 11.779 21.983 11.729 22.049 11.696 22.117 11.648 22.183 11.587 22.271 11.514 22.346 11.456 22.436 11.345 22.603 11.256 22.775 11.152 22.945 6.046 30.786 8.927 40.254 15.25 47.495 7.644 50.555 2.742 56.891 2.742 64.095 2.742 74.295 12.789 82.595 25.14 82.595 30.307 82.595 35.227 81.154 39.2 78.504 42.887 81.681 48.448 83.534 54.497 83.534 56.768 83.534 58.991 83.27 61.121 82.747 65.048 85.777 69.833 87.436 74.716 87.436 74.935 87.436 75.147 87.441 75.365 87.443 75.675 87.458 75.981 87.507 76.294 87.507 76.38 87.507 76.453 87.468 76.535 87.457 76.897 87.463 77.264 87.713 77.62 87.719 78.576 87.736 79.521 88 80.443 88H80.447C84.803 88 89.744 87.445 93.256 83.748 96.78 80.041 98.182 73.354 97.666 63.241M90.196 80.594C88.065 82.834 84.885 83.284 80.445 83.284 79.546 83.284 78.631 83.266 77.7 83.249 76.937 83.235 76.16 83.226 75.383 83.221 69.679 82.894 64.271 79.577 60.787 74.141A2.112 2.112 0 1 0 57.232 76.42C57.776 77.27 58.364 78.073 58.982 78.837 57.525 79.118 56.036 79.311 54.496 79.311 48.902 79.311 43.718 77.406 40.966 74.338L39.636 72.856 38.079 74.1C34.625 76.853 30.03 78.371 25.139 78.371 15.118 78.371 6.964 71.968 6.964 64.095 6.964 58.251 11.672 52.926 18.55 50.804A37 37 0 0 0 20.457 52.374C20.84 52.667 21.291 52.809 21.739 52.809 22.373 52.809 23.001 52.525 23.416 51.98A2.11 2.11 0 0 0 23.023 49.021C22.726 48.794 22.439 48.548 22.146 48.311L20.7 46.904C17.814 44.102 8.935 34.294 14.861 24.974 14.945 24.853 15.009 24.728 15.099 24.607 17.567 21 21.744 19.163 27.536 19.163 33.038 19.163 38.671 20.842 41.945 22.108 39.784 25.721 38.561 29.707 38.561 33.631A2.11 2.11 0 1 0 42.783 33.631C42.783 30.357 43.847 27.007 45.736 23.966L46.878 22.034C51.281 16.009 58.362 13 65.136 13H65.357C66.3 13 67.25 13.24 68.191 13.408 78.087 15.169 84.972 18.818 88.66 24.126 92.221 29.255 92.107 35.068 91.386 39.017A24.6 24.6 0 0 1 90.024 43.809L89.59 44.89 90.264 45.838C92.827 49.421 93.09 55.42 93.344 61.219L93.448 63.456C93.894 72.215 92.831 77.82 90.196 80.594" fill="#000000" data-fill-palette-color="quaternary"></path><path d="M53.605 45.195C52.832 45.195 52.044 45.316 51.2 45.561A8.2 8.2 0 0 0 47.345 47.982 7.7 7.7 0 0 0 45.822 50.567 19 19 0 0 1 41.232 52.905L38.349 53.918 40.314 56.256C41.512 57.681 42.368 59.267 42.858 60.975L43.52 63.278 45.722 62.33C48.309 61.216 51.328 60.625 54.457 60.621L56.126 60.558 56.518 58.951A16.8 16.8 0 0 1 58.137 54.788 18 18 0 0 1 60.43 51.571L61.486 50.398 60.658 49.053C59.195 46.673 56.492 45.195 53.605 45.195" fill="#000000" data-fill-palette-color="quaternary"></path></svg></g></svg></g></svg></g></svg></g><g></g></svg></g><defs></defs></svg><rect width="395.52" height="222.93234203193646" fill="none" stroke="none" visibility="hidden"></rect></g></svg></g></svg>